<?xml version="1.0" encoding="utf-8"?>
<!-- Generator: Adobe Illustrator 25.0.1, SVG Export Plug-In . SVG Version: 6.00 Build 0)  -->
<svg version="1.1" id="Layer_1" xmlns="http://www.w3.org/2000/svg" xmlns:xlink="http://www.w3.org/1999/xlink" x="0px" y="0px"
	 viewBox="0 0 1378 173" style="enable-background:new 0 0 1378 173;" xml:space="preserve">
<style type="text/css">
	.st0{fill:#0156FF;}
</style>
<g>
	<path d="M1055.6,144.2c-3.9,0-7.5-1.5-10.2-4.2c-5.6-5.6-5.6-14.8,0-20.4c2.7-2.7,6.3-4.2,10.2-4.2c3.9,0,7.5,1.5,10.2,4.2
		c2.7,2.7,4.2,6.3,4.2,10.2s-1.5,7.5-4.2,10.2C1063,142.7,1059.4,144.2,1055.6,144.2z M1055.6,118.3c-3.1,0-6,1.2-8.2,3.4
		c-4.5,4.5-4.5,11.8,0,16.3c2.2,2.2,5.1,3.4,8.2,3.4c3.1,0,6-1.2,8.2-3.4l0,0c2.2-2.2,3.4-5.1,3.4-8.2s-1.2-6-3.4-8.2
		C1061.6,119.5,1058.7,118.3,1055.6,118.3z"/>
</g>
<g>
	<path d="M1115.3,144.4c-11.9,0-21.9-4-29.9-12c-8-8.2-11.9-17.9-11.9-29.7c0-11.9,3.9-21.6,11.9-29.7c8-8,18.1-12,29.9-12
		c15.3,0,29,7.9,35.5,20.5l0.6,1.2L1131.9,94l-0.7-1.4c-2.8-5.8-9-9.4-16.1-9.4c-11,0-19,8.2-19,19.5c0,5.5,1.8,10.2,5.4,14
		c3.6,3.6,8.2,5.4,13.6,5.4c7.4,0,13.5-3.5,16.3-9.3l0.7-1.4l19.7,11.2l-0.7,1.2C1144,136.5,1130.3,144.4,1115.3,144.4z
		 M1115.3,63.7c-11.2,0-20.3,3.7-27.9,11.2c-7.4,7.6-11,16.6-11,27.7c0,11.1,3.6,20.1,11.1,27.7c7.5,7.5,16.6,11.2,27.9,11.2
		c13.5,0,25.8-6.8,32.6-17.9l-14.6-8.3c-3.6,6-10.2,9.5-18.1,9.5c-6.3,0-11.6-2.1-15.7-6.2c-4.1-4.3-6.2-9.7-6.2-16
		c0-13,9.2-22.4,21.9-22.4c7.7,0,14.4,3.7,18,9.7l14.5-8.5C1141.3,70.5,1129,63.7,1115.3,63.7z"/>
</g>
<g>
	<path d="M1195.4,144.4c-11.8,0-21.8-4-29.8-12c-8-8-12-18-12-29.7c0-11.6,4-21.6,12-29.6c8.1-8.1,18.1-12.2,29.8-12.2
		c11.6,0,21.7,4.1,29.8,12.2c8.1,8.1,12.2,18,12.2,29.6c0,11.7-4.1,21.7-12.2,29.7l0,0C1217.2,140.4,1207.2,144.4,1195.4,144.4z
		 M1195.4,63.7c-10.9,0-20.2,3.8-27.7,11.3c-7.5,7.5-11.2,16.6-11.2,27.6c0,11,3.8,20.3,11.2,27.7c7.4,7.4,16.8,11.2,27.7,11.2
		c11,0,20.3-3.8,27.7-11.2c7.5-7.5,11.3-16.9,11.3-27.7c0-10.9-3.7-19.9-11.3-27.6C1215.6,67.5,1206.3,63.7,1195.4,63.7z
		 M1195.4,125.2c-6.3,0-11.6-2.1-15.8-6.4l0,0c-4.1-4.3-6.2-9.7-6.2-16.1s2.1-11.8,6.2-16.1c4.3-4.3,9.6-6.4,15.9-6.4
		s11.6,2.1,15.8,6.4c4.2,4.2,6.4,9.7,6.4,16.1c0,6.5-2.1,11.9-6.4,16.1C1207,123,1201.7,125.2,1195.4,125.2z M1181.6,116.8
		c3.7,3.7,8.2,5.5,13.8,5.5c5.6,0,10.1-1.8,13.8-5.5c3.7-3.7,5.5-8.3,5.5-14.1c0-5.8-1.8-10.4-5.5-14.1c-3.7-3.7-8.2-5.5-13.8-5.5
		s-10.1,1.8-13.8,5.5c-3.6,3.7-5.4,8.5-5.4,14.1C1176.2,108.3,1178,113,1181.6,116.8z"/>
</g>
<g>
	<path d="M1364.6,142.3H1342V95.1c0-8.3-4.2-13.1-11.4-13.1c-8.2,0-12.8,5.6-12.8,15.8v44.4h-22.6V95.1c0-8.3-4.2-13.1-11.4-13.1
		c-8.2,0-12.9,5.8-12.9,15.8v44.4h-22.6V63h22.6v8.1h0.7c4.7-6.5,9.4-10.2,19.1-10.2c9,0,14.2,2.8,19,10.2h1.2
		c5.1-6.9,12.8-10.2,23.4-10.2c18.4,0,30.3,12.9,30.3,32.9V142.3z M1344.9,139.4h16.8V93.8c0-18.3-10.8-30-27.5-30
		c-9.9,0-16.9,3.1-21.4,9.6l-0.4,0.6h-4.2l-0.4-0.7c-4.4-7.1-8.7-9.6-17-9.6c-8.8,0-12.8,3.4-17.2,9.6l-0.4,0.6h-5v-8.1h-16.8v73.5
		h16.8V97.9c0-11.5,6.1-18.7,15.8-18.7c8.9,0,14.3,6,14.3,16v44.3h16.8V97.9c0-11.9,5.7-18.7,15.7-18.7c8.9,0,14.3,6,14.3,16V139.4z
		"/>
</g>
<g>
	<path d="M336.7,31c15.3,0,28.1,5.4,38.3,16.2c10.4,10.7,15.5,24,15.5,39.8c0,15.8-5.1,29-15.5,39.8c-10.3,10.7-23,16.2-38.3,16.2
		h-44.4V31H336.7z M336.7,121.8c9.7,0,17.5-3.2,23.7-9.6c6.1-6.6,9.1-14.9,9.1-25.3s-3-18.7-9.1-25c-6.1-6.6-14-9.7-23.7-9.7h-22.4
		v69.7H336.7z"/>
</g>
<g>
	<path d="M401.2,40.8c0-6.8,5.8-12.8,12.6-12.8c7,0,12.8,5.9,12.8,12.8c0,6.8-5.8,12.6-12.8,12.6C406.9,53.4,401.2,47.6,401.2,40.8z
		 M403.6,142.8V63h20.5v79.8H403.6z"/>
</g>
<g>
	<path d="M506.7,69.5c5.8,5.9,8.6,14,8.6,24.2v49h-20.5V96.3c0-10.7-6.2-16.5-15.8-16.5c-10.7,0-17.5,6.6-17.5,19.8v43.1h-20.5V63
		h20.5v9c5-7.5,12.9-11.2,23.8-11.2C494,60.8,501.2,63.6,506.7,69.5z"/>
</g>
<g>
	<path d="M577.3,31c15.3,0,28.1,5.4,38.3,16.2c10.4,10.7,15.5,24,15.5,39.8c0,15.8-5.1,29.1-15.5,39.8c-10.3,10.7-23,16.2-38.3,16.2
		H533V31H577.3z M577.3,121.8c9.7,0,17.5-3.2,23.7-9.6c6.1-6.6,9.1-14.9,9.1-25.3s-3-18.7-9.1-25c-6.1-6.6-14-9.7-23.7-9.7h-22.4
		v69.7H577.3z"/>
</g>
<g>
	<path d="M665.2,76.7c3.8-10.3,13.4-15.3,24.2-15.3v23.1c-6.2-0.8-12,0.5-17,3.8c-5,3.3-7.4,8.8-7.4,16.5V143h-20.5V63h20.5v13.7
		H665.2z"/>
</g>
<g>
	<path d="M736.7,145.1c-11.9,0-21.9-4-30-12.1c-8.2-8.2-12.1-18.2-12.1-30c0-11.9,4-21.7,12.1-29.9c8.2-8.2,18.2-12.2,30-12.2
		c11.9,0,21.9,4.2,30,12.2c8.2,8.2,12.2,18,12.2,29.9c0,11.9-4.2,21.9-12.2,30C758.6,141.1,748.6,145.1,736.7,145.1z M736.7,124.9
		c6.2,0,11.3-2.1,15.5-6.2c4.2-4.2,6.2-9.5,6.2-15.8c0-6.5-2.1-11.7-6.2-15.8c-4.2-4.2-9.2-6.2-15.5-6.2c-6.3,0-11.3,2.1-15.5,6.2
		c-4,4.2-6.1,9.5-6.1,15.8c0,6.5,2.1,11.7,6.1,15.8C725.4,122.8,730.5,124.9,736.7,124.9z"/>
</g>
<g>
	<path d="M857.2,69.5c5.8,5.9,8.6,14,8.6,24.2v49h-20.5V96.3c0-10.7-6.2-16.5-15.8-16.5c-10.7,0-17.5,6.6-17.5,19.8v43.1h-20.5V63
		h20.5v9c5-7.5,12.9-11.2,23.8-11.2C844.5,60.8,851.7,63.6,857.2,69.5z"/>
</g>
<g>
	<path d="M898.9,111.4c2.8,10,10.3,15,22.5,15c7.8,0,14-2.8,17.9-8l16.6,9.6c-7.8,11.3-19.5,17.1-34.8,17.1c-13.3,0-23.8-4-31.7-12
		c-8-8-12-18-12-30.2c0-12,4-22,11.9-30c7.8-8.2,18-12.1,30.3-12.1c11.7,0,21.5,4,29,12.1c7.6,8.2,11.5,18,11.5,30
		c0,2.8-0.3,5.4-0.8,8.4H898.9L898.9,111.4z M939.3,95.4c-2.4-10.8-10.4-16.2-19.8-16.2c-11.1,0-18.6,5.9-20.9,16.2H939.3z"/>
</g>
<g>
	<path d="M1004.6,94.5c11.7,2.4,26.9,8,26.7,25c0,8.2-3,14.5-9.2,19c-6.1,4.3-13.7,6.6-22.8,6.6c-16.5,0-27.7-6.5-33.6-19l17.9-10
		c2.4,6.8,7.5,10.4,15.7,10.4c7.4,0,11.1-2.2,11.1-6.8c0-4.3-6.5-6.7-14.5-8.8c-11.9-3-26.7-8-26.7-24.6c0-7.8,2.9-14.1,8.6-18.6
		c5.9-4.6,13-6.8,21.7-6.8c12.9,0,24.1,6.1,30.3,17l-17.7,9.5c-2.5-5.4-6.9-8.2-12.8-8.2c-5.3,0-9.2,2.5-9.2,6.6
		C990.1,90,996.5,92.4,1004.6,94.5z"/>
</g>
<g>
	<path class="st0" d="M136,0.3h-21.6v1.1c45,6.1,77.6,37.1,77.6,84.6c0,46.5-32.5,79.2-77.6,85.6v1.2H136c53.3,0,94-34.8,94-86.7
		C230,33,189.3,0.3,136,0.3z"/>
</g>
<g>
	<path class="st0" d="M154.8,86.1c0-32.9-15.7-58-40.3-72.2C99.3,5.1,80.9,0.3,60.7,0.3H0.7v172.4h60.1c20.3,0,38.6-5,53.7-14.1
		C139,143.9,154.8,118.2,154.8,86.1z M60.5,132.3H45.6V41h14.9c27.1,0,48.3,14.4,48.3,44.9C108.8,115.6,87.6,132.3,60.5,132.3z"/>
</g>
</svg>
