<?xml version="1.0" encoding="utf-8"?>
<!-- Generator: Adobe Illustrator 25.0.1, SVG Export Plug-In . SVG Version: 6.00 Build 0)  -->
<svg version="1.1" id="Layer_1" xmlns="http://www.w3.org/2000/svg" xmlns:xlink="http://www.w3.org/1999/xlink" x="0px" y="0px"
	 viewBox="0 0 504 88" style="enable-background:new 0 0 504 88;" xml:space="preserve">
<style type="text/css">
	.st0{fill:#0156FF;}
</style>
<g>
	<path d="M165,17.1c7.4,0,13.6,2.6,18.6,7.9c5.1,5.2,7.5,11.6,7.5,19.3s-2.5,14.1-7.5,19.3c-5,5.2-11.2,7.9-18.6,7.9h-21.5V17.1H165
		z M165,61.1c4.7,0,8.5-1.5,11.5-4.7c2.9-3.2,4.4-7.2,4.4-12.3s-1.5-9.1-4.4-12.1c-2.9-3.2-6.8-4.7-11.5-4.7h-10.9v33.8H165z"/>
	<path d="M196.3,21.8c0-3.3,2.8-6.2,6.1-6.2c3.4,0,6.2,2.9,6.2,6.2s-2.8,6.1-6.2,6.1C199.1,27.9,196.3,25.1,196.3,21.8z M197.4,71.3
		V32.6h10v38.7H197.4z"/>
	<path d="M247.5,35.7c2.8,2.9,4.2,6.8,4.2,11.8v23.8h-10V48.8c0-5.2-3-8-7.7-8c-5.2,0-8.5,3.2-8.5,9.6v20.9h-10V32.6h10V37
		c2.4-3.6,6.3-5.4,11.6-5.4C241.3,31.5,244.8,32.9,247.5,35.7z"/>
	<path d="M281.7,17.1c7.4,0,13.6,2.6,18.6,7.9c5.1,5.2,7.5,11.6,7.5,19.3s-2.5,14.1-7.5,19.3c-5,5.2-11.2,7.9-18.6,7.9h-21.5V17.1
		H281.7z M281.7,61.1c4.7,0,8.5-1.5,11.5-4.7c2.9-3.2,4.4-7.2,4.4-12.3s-1.5-9.1-4.4-12.1c-2.9-3.2-6.8-4.7-11.5-4.7h-10.9v33.8
		H281.7z"/>
	<path d="M324.4,39.3c1.8-5,6.5-7.4,11.8-7.4V43c-3-0.4-5.8,0.3-8.3,1.8s-3.6,4.3-3.6,8v18.5h-10V32.6h10L324.4,39.3L324.4,39.3
		L324.4,39.3z"/>
	<path d="M359,72.4c-5.7,0-10.6-1.9-14.6-5.9s-5.9-8.8-5.9-14.6s1.9-10.5,5.9-14.5s8.8-5.9,14.6-5.9s10.6,2,14.6,5.9
		c4,4,5.9,8.7,5.9,14.5s-2,10.6-5.9,14.6C369.6,70.5,364.8,72.4,359,72.4z M359,62.6c3,0,5.5-1,7.5-3c2-2,3-4.6,3-7.7
		c0-3.1-1-5.7-3-7.7c-2-2-4.5-3-7.5-3s-5.5,1-7.5,3c-1.9,2-2.9,4.6-2.9,7.7c0,3.1,1,5.7,2.9,7.7C353.6,61.6,356,62.6,359,62.6z"/>
	<path d="M417.5,35.7c2.8,2.9,4.2,6.8,4.2,11.8v23.8h-10V48.8c0-5.2-3-8-7.7-8c-5.2,0-8.5,3.2-8.5,9.6v20.9h-10V32.6h10V37
		c2.4-3.6,6.3-5.4,11.6-5.4C411.3,31.5,414.8,32.9,417.5,35.7z"/>
	<path d="M437.7,56.1c1.4,4.9,5,7.3,10.9,7.3c3.8,0,6.8-1.4,8.7-3.9l8.1,4.7c-3.8,5.5-9.5,8.3-16.9,8.3c-6.4,0-11.6-1.9-15.4-5.8
		c-3.9-3.9-5.8-8.7-5.8-14.6c0-5.8,1.9-10.7,5.7-14.6c3.8-4,8.7-5.9,14.7-5.9c5.7,0,10.4,1.9,14.1,5.9c3.7,4,5.5,8.7,5.5,14.6
		c0,1.4-0.1,2.6-0.4,4.1L437.7,56.1L437.7,56.1z M457.3,48.3c-1.2-5.2-5.1-7.9-9.6-7.9c-5.4,0-9,2.9-10.2,7.9H457.3z"/>
	<path d="M489,47.9c5.7,1.2,13,3.9,13,12.1c0,4-1.5,7-4.5,9.2c-2.9,2.1-6.6,3.2-11.1,3.2c-8,0-13.4-3.1-16.3-9.2l8.7-4.9
		c1.2,3.3,3.6,5.1,7.6,5.1c3.6,0,5.4-1.1,5.4-3.3c0-2.1-3.1-3.3-7-4.3c-5.7-1.5-13-3.9-13-12c0-3.8,1.4-6.8,4.2-9
		c2.9-2.2,6.3-3.3,10.5-3.3c6.3,0,11.7,2.9,14.7,8.3l-8.6,4.6c-1.2-2.6-3.3-4-6.2-4c-2.5,0-4.5,1.2-4.5,3.2
		C482,45.7,485.1,46.9,489,47.9z"/>
	<g>
		<path class="st0" d="M67.9,2H57.4v0.5c22,3,37.8,18.1,37.8,41.2c0,22.6-15.9,38.6-37.8,41.7V86h10.5c26,0,45.8-16.9,45.8-42.2
			C113.7,17.9,93.9,2,67.9,2z"/>
		<path class="st0" d="M77.1,43.8c0-16.1-7.6-28.3-19.6-35.2C50.1,4.3,41.1,2,31.2,2H2v84h29.3c9.9,0,18.8-2.5,26.2-6.9
			C69.4,72,77.1,59.4,77.1,43.8z M31.1,66.3h-7.3V21.8h7.3c13.2,0,23.5,7,23.5,21.9C54.7,58.1,44.3,66.3,31.1,66.3z"/>
	</g>
</g>
</svg>
